<?xml version="1.0" encoding="UTF-8"?><svg xmlns="http://www.w3.org/2000/svg" width="586.41" height="77.42" viewBox="0 0 586.41 77.42"><defs><style>.d{fill:#fff;}</style></defs><g id="a"/><g id="b"><g id="c"><g><path class="d" d="M0,77.42V21.41H60.99v7.48H8.56v13.88H60.99v7.31H8.56v19.86H60.99v7.48H0Z"/><path class="d" d="M90.32,77.42V21.41h8.56v48.53h52.27v7.48h-60.83Z"/><path class="d" d="M177.32,77.42V21.41h60.99v7.48h-52.44v13.88h52.44v7.31h-52.44v19.86h52.44v7.48h-60.99Z"/><path class="d" d="M306.87,77.42h-8.06l-36.15-56.92h10.64l29.58,47.7L349.63,0h10.3l-53.07,77.42Z"/><path class="d" d="M413.57,77.42l-7.81-12.71h-43.46l-7.89,12.71h-10.3l36.31-56.92h7.48l36.31,56.92h-10.64Zm-29.5-47.78l-17.2,27.67h34.32l-17.12-27.67Z"/><path class="d" d="M467.91,28.89v48.53h-8.56V28.89h-32.57v-7.48h73.63v7.48h-32.49Z"/><path class="d" d="M525.41,77.42V21.41h61v7.48h-52.44v13.88h52.44v7.31h-52.44v19.86h52.44v7.48h-61Z"/></g></g></g></svg>